<svg width="484" height="137" viewBox="0 0 484 137" fill="none" xmlns="http://www.w3.org/2000/svg">
<path d="M27.3178 80.9763L0 52.2785L20.8072 48.0761C16.4365 62.3731 17.8077 70.3237 27.3178 80.9763L31.043 84.8896C29.6845 83.5372 28.4441 82.2378 27.3178 80.9763Z" fill="#FFB13A"/>
<path d="M50.5078 62.0282L22.4852 44.7141V43.7055H34.9024H36.7482V41.3521V24.3742H37.9228C37.9228 24.3742 54.535 48.5497 52.5214 32.2748C50.5078 16 68.798 0 68.798 0H70.476L85.578 32.2748H87.9272C87.9272 32.2748 111.88 5.04294 102.19 24.3742C92.5 43.7055 102.19 44.7141 102.19 44.7141H116.285L87.9272 62.0282L68.798 20.508L50.5078 62.0282Z" fill="#FFB13A"/>
<path d="M139.61 51.2699L117.292 48.0761L107.728 84.8896C111.206 71.5 125.194 62.5362 139.61 51.2699Z" fill="#FFB13A"/>
<path d="M112.762 137L105.378 90.1006C94.5049 97.3013 87.9962 99.9087 75.6778 102.036C73.4964 104.725 54.8706 101.027 50.5078 99.346C46.145 97.665 34.5668 92.9583 29.0294 90.1006L26.3446 137L70.8116 114.643L112.762 137Z" fill="#FFB13A"/>
<circle cx="61.3238" cy="73.719" r="3.91429" fill="#FFB13A"/>
<circle cx="78.2857" cy="73.719" r="3.91429" fill="#FFB13A"/>
<path d="M43.7095 77.9595C49.2544 89.8498 65.8905 95.9 65.8905 95.9C65.8905 95.9 95.2476 89.7024 95.2476 71.7619" stroke="#FFB13A" stroke-width="3"/>
<path d="M190.939 97.504C188.041 97.504 185.248 97.168 182.56 96.496C179.914 95.782 177.814 94.9 176.26 93.85L179.536 86.794C181.09 87.76 182.917 88.558 185.017 89.188C187.159 89.776 189.259 90.07 191.317 90.07C193.585 90.07 195.181 89.797 196.105 89.251C197.071 88.705 197.554 87.949 197.554 86.983C197.554 86.185 197.176 85.597 196.42 85.219C195.706 84.799 194.74 84.484 193.522 84.274C192.304 84.064 190.96 83.854 189.49 83.644C188.062 83.434 186.613 83.161 185.143 82.825C183.673 82.447 182.329 81.901 181.111 81.187C179.893 80.473 178.906 79.507 178.15 78.289C177.436 77.071 177.079 75.496 177.079 73.564C177.079 71.422 177.688 69.532 178.906 67.894C180.166 66.256 181.972 64.975 184.324 64.051C186.676 63.085 189.49 62.602 192.766 62.602C195.076 62.602 197.428 62.854 199.822 63.358C202.216 63.862 204.211 64.597 205.807 65.563L202.531 72.556C200.893 71.59 199.234 70.939 197.554 70.603C195.916 70.225 194.32 70.036 192.766 70.036C190.582 70.036 188.986 70.33 187.978 70.918C186.97 71.506 186.466 72.262 186.466 73.186C186.466 74.026 186.823 74.656 187.537 75.076C188.293 75.496 189.28 75.832 190.498 76.084C191.716 76.336 193.039 76.567 194.467 76.777C195.937 76.945 197.407 77.218 198.877 77.596C200.347 77.974 201.67 78.52 202.846 79.234C204.064 79.906 205.051 80.851 205.807 82.069C206.563 83.245 206.941 84.799 206.941 86.731C206.941 88.831 206.311 90.7 205.051 92.338C203.791 93.934 201.964 95.194 199.57 96.118C197.218 97.042 194.341 97.504 190.939 97.504ZM226.865 97.504C222.875 97.504 219.767 96.496 217.541 94.48C215.315 92.422 214.202 89.377 214.202 85.345V55.609H224.03V85.219C224.03 86.647 224.408 87.76 225.164 88.558C225.92 89.314 226.949 89.692 228.251 89.692C229.805 89.692 231.128 89.272 232.22 88.432L234.866 95.362C233.858 96.076 232.64 96.622 231.212 97C229.826 97.336 228.377 97.504 226.865 97.504ZM208.973 71.422V63.862H232.472V71.422H208.973ZM261.173 97V90.385L260.543 88.936V77.092C260.543 74.992 259.892 73.354 258.59 72.178C257.33 71.002 255.377 70.414 252.731 70.414C250.925 70.414 249.14 70.708 247.376 71.296C245.654 71.842 244.184 72.598 242.966 73.564L239.438 66.697C241.286 65.395 243.512 64.387 246.116 63.673C248.72 62.959 251.366 62.602 254.054 62.602C259.22 62.602 263.231 63.82 266.087 66.256C268.943 68.692 270.371 72.493 270.371 77.659V97H261.173ZM250.841 97.504C248.195 97.504 245.927 97.063 244.037 96.181C242.147 95.257 240.698 94.018 239.69 92.464C238.682 90.91 238.178 89.167 238.178 87.235C238.178 85.219 238.661 83.455 239.627 81.943C240.635 80.431 242.21 79.255 244.352 78.415C246.494 77.533 249.287 77.092 252.731 77.092H261.74V82.825H253.802C251.492 82.825 249.896 83.203 249.014 83.959C248.174 84.715 247.754 85.66 247.754 86.794C247.754 88.054 248.237 89.062 249.203 89.818C250.211 90.532 251.576 90.889 253.298 90.889C254.936 90.889 256.406 90.511 257.708 89.755C259.01 88.957 259.955 87.802 260.543 86.29L262.055 90.826C261.341 93.01 260.039 94.669 258.149 95.803C256.259 96.937 253.823 97.504 250.841 97.504ZM279.265 97V63.106H288.652V72.682L287.329 69.91C288.337 67.516 289.954 65.71 292.18 64.492C294.406 63.232 297.115 62.602 300.307 62.602V71.674C299.887 71.632 299.509 71.611 299.173 71.611C298.837 71.569 298.48 71.548 298.102 71.548C295.414 71.548 293.23 72.325 291.55 73.879C289.912 75.391 289.093 77.764 289.093 80.998V97H279.265ZM314.34 90.07L314.592 78.1L330.405 63.106H342.123L326.94 78.541L321.837 82.699L314.34 90.07ZM306.213 97V50.254H316.041V97H306.213ZM331.476 97L320.01 82.762L326.184 75.139L343.383 97H331.476ZM347.803 97V63.106H357.631V97H347.803ZM352.717 58.381C350.911 58.381 349.441 57.856 348.307 56.806C347.173 55.756 346.606 54.454 346.606 52.9C346.606 51.346 347.173 50.044 348.307 48.994C349.441 47.944 350.911 47.419 352.717 47.419C354.523 47.419 355.993 47.923 357.127 48.931C358.261 49.897 358.828 51.157 358.828 52.711C358.828 54.349 358.261 55.714 357.127 56.806C356.035 57.856 354.565 58.381 352.717 58.381ZM387.353 62.602C390.041 62.602 392.435 63.148 394.535 64.24C396.677 65.29 398.357 66.928 399.575 69.154C400.793 71.338 401.402 74.152 401.402 77.596V97H391.574V79.108C391.574 76.378 390.965 74.362 389.747 73.06C388.571 71.758 386.891 71.107 384.707 71.107C383.153 71.107 381.746 71.443 380.486 72.115C379.268 72.745 378.302 73.732 377.588 75.076C376.916 76.42 376.58 78.142 376.58 80.242V97H366.752V63.106H376.139V72.493L374.375 69.658C375.593 67.39 377.336 65.647 379.604 64.429C381.872 63.211 384.455 62.602 387.353 62.602ZM426.496 109.726C423.304 109.726 420.217 109.327 417.235 108.529C414.295 107.773 411.838 106.618 409.864 105.064L413.77 98.008C415.198 99.184 417.004 100.108 419.188 100.78C421.414 101.494 423.598 101.851 425.74 101.851C429.226 101.851 431.746 101.074 433.3 99.52C434.896 97.966 435.694 95.656 435.694 92.59V87.487L436.324 78.982L436.198 70.414V63.106H445.522V91.33C445.522 97.63 443.884 102.271 440.608 105.253C437.332 108.235 432.628 109.726 426.496 109.726ZM424.984 95.362C421.834 95.362 418.978 94.69 416.416 93.346C413.896 91.96 411.859 90.049 410.305 87.613C408.793 85.135 408.037 82.258 408.037 78.982C408.037 75.664 408.793 72.787 410.305 70.351C411.859 67.873 413.896 65.962 416.416 64.618C418.978 63.274 421.834 62.602 424.984 62.602C427.84 62.602 430.36 63.19 432.544 64.366C434.728 65.5 436.429 67.285 437.647 69.721C438.865 72.115 439.474 75.202 439.474 78.982C439.474 82.72 438.865 85.807 437.647 88.243C436.429 90.637 434.728 92.422 432.544 93.598C430.36 94.774 427.84 95.362 424.984 95.362ZM426.937 87.298C428.659 87.298 430.192 86.962 431.536 86.29C432.88 85.576 433.93 84.589 434.686 83.329C435.442 82.069 435.82 80.62 435.82 78.982C435.82 77.302 435.442 75.853 434.686 74.635C433.93 73.375 432.88 72.409 431.536 71.737C430.192 71.023 428.659 70.666 426.937 70.666C425.215 70.666 423.682 71.023 422.338 71.737C420.994 72.409 419.923 73.375 419.125 74.635C418.369 75.853 417.991 77.302 417.991 78.982C417.991 80.62 418.369 82.069 419.125 83.329C419.923 84.589 420.994 85.576 422.338 86.29C423.682 86.962 425.215 87.298 426.937 87.298ZM466.072 97.504C463.174 97.504 460.381 97.168 457.693 96.496C455.047 95.782 452.947 94.9 451.393 93.85L454.669 86.794C456.223 87.76 458.05 88.558 460.15 89.188C462.292 89.776 464.392 90.07 466.45 90.07C468.718 90.07 470.314 89.797 471.238 89.251C472.204 88.705 472.687 87.949 472.687 86.983C472.687 86.185 472.309 85.597 471.553 85.219C470.839 84.799 469.873 84.484 468.655 84.274C467.437 84.064 466.093 83.854 464.623 83.644C463.195 83.434 461.746 83.161 460.276 82.825C458.806 82.447 457.462 81.901 456.244 81.187C455.026 80.473 454.039 79.507 453.283 78.289C452.569 77.071 452.212 75.496 452.212 73.564C452.212 71.422 452.821 69.532 454.039 67.894C455.299 66.256 457.105 64.975 459.457 64.051C461.809 63.085 464.623 62.602 467.899 62.602C470.209 62.602 472.561 62.854 474.955 63.358C477.349 63.862 479.344 64.597 480.94 65.563L477.664 72.556C476.026 71.59 474.367 70.939 472.687 70.603C471.049 70.225 469.453 70.036 467.899 70.036C465.715 70.036 464.119 70.33 463.111 70.918C462.103 71.506 461.599 72.262 461.599 73.186C461.599 74.026 461.956 74.656 462.67 75.076C463.426 75.496 464.413 75.832 465.631 76.084C466.849 76.336 468.172 76.567 469.6 76.777C471.07 76.945 472.54 77.218 474.01 77.596C475.48 77.974 476.803 78.52 477.979 79.234C479.197 79.906 480.184 80.851 480.94 82.069C481.696 83.245 482.074 84.799 482.074 86.731C482.074 88.831 481.444 90.7 480.184 92.338C478.924 93.934 477.097 95.194 474.703 96.118C472.351 97.042 469.474 97.504 466.072 97.504Z" fill="#12151D"/>
<path d="M340 50L349.02 46L356.98 48L366 61H350.082L340 50Z" fill="white"/>
<circle cx="352" cy="41" r="1" fill="#FFB13A"/>
<circle cx="356" cy="41" r="1" fill="#FFB13A"/>
<path d="M350 44.027C350.861 45.9974 353.443 47 353.443 47C353.443 47 358 45.973 358 43" stroke="#FFB13A" stroke-width="3"/>
<path d="M345.671 45.9693L339 39.0663L343.471 38.1767L345.671 45.9693Z" fill="#FFB13A"/>
<path d="M349.853 41.1301L343.832 37.465V37.2515H346.897V33.1595H347.149L350.286 34.8319L353.784 28H354.144L357.389 34.8319H357.894L360.959 33.1595V37.465H363.988L357.894 41.1301L353.784 32.3411L349.853 41.1301Z" fill="#FFB13A"/>
<path d="M369 38.8528L364.204 38.1767L362.149 45.9693L369 38.8528Z" fill="#FFB13A"/>
<path d="M363.231 57L361.644 47.0724C359.308 48.5966 357.909 49.1486 355.262 49.5988C354.793 50.1681 350.791 49.3853 349.853 49.0294C348.916 48.6736 346.428 47.6773 345.238 47.0724L344.661 57L354.216 52.2675L363.231 57Z" fill="#FFB13A"/>
<path d="M284.661 118.81V120.696C283.626 119.362 281.97 118.695 280.153 118.695C276.634 118.695 273.966 121.064 273.966 124.583C273.966 128.102 276.634 130.494 280.153 130.494C281.901 130.494 283.488 129.873 284.546 128.608V129.574C284.546 132.334 283.235 133.668 280.36 133.668C278.566 133.668 276.795 133.047 275.668 132.081L274.61 133.783C275.944 134.979 278.198 135.6 280.429 135.6C284.569 135.6 286.754 133.645 286.754 129.344V118.81H284.661ZM280.406 128.562C277.945 128.562 276.197 126.929 276.197 124.583C276.197 122.214 277.945 120.627 280.406 120.627C282.844 120.627 284.592 122.214 284.592 124.583C284.592 126.929 282.844 128.562 280.406 128.562ZM295.412 118.695C293.457 118.695 291.64 119.247 290.375 120.259L291.295 121.915C292.238 121.11 293.71 120.604 295.159 120.604C297.344 120.604 298.425 121.685 298.425 123.548V123.985H294.929C291.295 123.985 290.03 125.595 290.03 127.55C290.03 129.666 291.778 131.138 294.538 131.138C296.447 131.138 297.804 130.494 298.54 129.39V131H300.633V123.64C300.633 120.305 298.747 118.695 295.412 118.695ZM294.906 129.436C293.227 129.436 292.215 128.677 292.215 127.458C292.215 126.423 292.836 125.572 295.021 125.572H298.425V127.274C297.873 128.677 296.562 129.436 294.906 129.436ZM319.968 118.695C317.898 118.695 316.196 119.569 315.276 120.949C314.471 119.431 312.907 118.695 311.044 118.695C309.204 118.695 307.709 119.385 306.835 120.627V118.81H304.719V131H306.927V124.721C306.927 122.076 308.376 120.673 310.584 120.673C312.585 120.673 313.735 121.846 313.735 124.238V131H315.943V124.721C315.943 122.076 317.392 120.673 319.6 120.673C321.601 120.673 322.751 121.846 322.751 124.238V131H324.959V123.985C324.959 120.397 322.935 118.695 319.968 118.695ZM340.106 124.974C340.106 121.225 337.599 118.695 334.08 118.695C330.561 118.695 327.962 121.294 327.962 124.905C327.962 128.539 330.584 131.138 334.517 131.138C336.541 131.138 338.22 130.448 339.324 129.16L338.105 127.734C337.208 128.723 336.012 129.206 334.586 129.206C332.171 129.206 330.446 127.78 330.17 125.641H340.06C340.083 125.434 340.106 125.158 340.106 124.974ZM334.08 120.558C336.219 120.558 337.76 122.007 337.99 124.054H330.17C330.4 121.984 331.964 120.558 334.08 120.558ZM352.845 131.138C356.088 131.138 358.112 129.735 358.112 127.527C358.112 122.789 350.384 125.135 350.384 122.26C350.384 121.294 351.327 120.581 353.259 120.581C354.455 120.581 355.674 120.834 356.778 121.547L357.721 119.799C356.663 119.109 354.869 118.695 353.282 118.695C350.154 118.695 348.199 120.167 348.199 122.352C348.199 127.205 355.904 124.836 355.904 127.573C355.904 128.608 355.053 129.229 353.006 129.229C351.419 129.229 349.763 128.7 348.728 127.964L347.808 129.712C348.82 130.517 350.821 131.138 352.845 131.138ZM367.035 128.7C366.575 129.068 365.954 129.275 365.31 129.275C364.091 129.275 363.401 128.539 363.401 127.228V120.627H366.897V118.81H363.401V116.142H361.193V118.81H359.123V120.627H361.193V127.32C361.193 129.781 362.596 131.138 365.057 131.138C366.046 131.138 367.058 130.862 367.725 130.287L367.035 128.7ZM375.211 131.138C378.868 131.138 381.536 128.539 381.536 124.905C381.536 121.271 378.868 118.695 375.211 118.695C371.554 118.695 368.863 121.271 368.863 124.905C368.863 128.539 371.554 131.138 375.211 131.138ZM375.211 129.206C372.865 129.206 371.094 127.504 371.094 124.905C371.094 122.306 372.865 120.627 375.211 120.627C377.557 120.627 379.305 122.306 379.305 124.905C379.305 127.504 377.557 129.206 375.211 129.206ZM386.706 120.857V118.81H384.59V131H386.798V124.928C386.798 122.26 388.27 120.811 390.639 120.811C390.8 120.811 390.961 120.811 391.145 120.834V118.695C389.006 118.695 387.488 119.431 386.706 120.857ZM404.771 124.974C404.771 121.225 402.264 118.695 398.745 118.695C395.226 118.695 392.627 121.294 392.627 124.905C392.627 128.539 395.249 131.138 399.182 131.138C401.206 131.138 402.885 130.448 403.989 129.16L402.77 127.734C401.873 128.723 400.677 129.206 399.251 129.206C396.836 129.206 395.111 127.78 394.835 125.641H404.725C404.748 125.434 404.771 125.158 404.771 124.974ZM398.745 120.558C400.884 120.558 402.425 122.007 402.655 124.054H394.835C395.065 121.984 396.629 120.558 398.745 120.558Z" fill="black"/>
</svg>
